<svg class="svg-icon" style="width: 1em; height: 1em;vertical-align: middle;fill: currentColor;overflow: hidden;" viewBox="0 0 1024 1024" version="1.1" xmlns="http://www.w3.org/2000/svg"><path d="M182.495053 811.089101c5.069307-5.069307 35.485148-20.277228 45.623762-25.346534 15.207921-10.138614 30.415841-15.207921 45.623762-20.277228 30.415841-15.207921 60.831683-30.415841 96.316831-45.623762C380.198021 714.772271 390.336635 709.702964 395.405942 709.702964c10.138614-5.069307 15.207921-5.069307 20.277228-15.207921 10.138614-10.138614 20.277228-30.415841 10.138614-50.693069-5.069307-10.138614-10.138614-15.207921-15.207921-20.277228C370.059407 582.970292 344.712873 506.930688 339.643566 451.168313c0-20.277228 0-45.623762 0-70.970296 0-15.207921 0-60.831683 0-70.970296 5.069307-30.415841 40.554455-60.831683 60.831683-76.039603 81.10891-50.693069 162.21782-45.623762 233.188117 15.207921C643.801979 248.396037 643.801979 253.465344 648.871286 253.465344c45.623762 45.623762 35.485148 60.831683 35.485148 121.663365 0 25.346534 0 45.623762 0 70.970296 0 50.693069-20.277228 121.663365-55.762376 157.148513-15.207921 15.207921-25.346534 20.277228-35.485148 35.485148-10.138614 20.277228 0 40.554455 10.138614 50.693069 10.138614 10.138614 30.415841 20.277228 45.623762 25.346534 30.415841 15.207921 60.831683 30.415841 96.316831 45.623762 15.207921 5.069307 30.415841 15.207921 45.623762 20.277228 10.138614 5.069307 15.207921 5.069307 25.346534 10.138614 5.069307 0 10.138614 5.069307 10.138614 5.069307 5.069307 0 10.138614 5.069307 10.138614 5.069307 0 5.069307-30.415841 30.415841-35.485148 35.485148-30.415841 25.346534-60.831683 50.693069-101.386138 70.970296-55.762376 25.346534-121.663365 45.623762-192.633662 45.623762-106.455445 0-207.841582-35.485148-283.881185-101.386138l-15.207921-15.207921C207.841587 836.435636 187.564359 816.158408 182.495053 811.089101L182.495053 811.089101 182.495053 811.089101zM760.396037 147.0099c5.069307 0 15.207921 10.138614 20.277228 15.207921 15.207921 10.138614 15.207921 15.207921 30.415841 20.277228 20.277228 20.277228 50.693069 55.762376 70.970296 81.10891 5.069307 5.069307 10.138614 15.207921 15.207921 20.277228l0 0c5.069307 5.069307 25.346534 45.623762 25.346534 50.693069 25.346534 60.831683 40.554455 131.801979 35.485148 202.772275-5.069307 70.970296-20.277228 126.732672-50.693069 187.564355-5.069307 10.138614-25.346534 45.623762-30.415841 50.693069-5.069307 0-10.138614-5.069307-15.207921-5.069307L816.158413 740.118805c-20.277228-10.138614-172.356434-81.10891-172.356434-81.10891 5.069307-5.069307 10.138614-10.138614 15.207921-15.207921 5.069307-5.069307 10.138614-10.138614 15.207921-15.207921 10.138614-10.138614 15.207921-20.277228 25.346534-35.485148 15.207921-25.346534 25.346534-55.762376 30.415841-86.178217 10.138614-45.623762 10.138614-116.594058 10.138614-167.287127 0-15.207921 0-25.346534-5.069307-40.554455 0-5.069307-5.069307-10.138614-5.069307-10.138614l-10.138614-15.207921C714.772275 258.534651 709.702968 253.465344 699.564355 243.32673c0-5.069307-5.069307-5.069307-5.069307-5.069307 0-5.069307-5.069307-5.069307-5.069307-5.069307-25.346534-30.415841-70.970296-55.762376-111.524751-70.970296-25.346534-10.138614-50.693069-10.138614-81.10891-10.138614C466.376238 152.079206 446.099011 157.148513 420.752476 167.287127 395.405942 177.425741 375.128714 192.633662 354.851487 207.841582 349.78218 212.910889 339.643566 223.049503 329.504952 233.188117 294.019804 273.742572 288.950497 288.950492 288.950497 344.712868c0 35.485148 0 65.900989 0 101.386138 0 50.693069 20.277228 116.594058 45.623762 157.148513 5.069307 10.138614 15.207921 20.277228 20.277228 30.415841 5.069307 5.069307 10.138614 10.138614 10.138614 15.207921 5.069307 0 5.069307 5.069307 5.069307 5.069307 5.069307 0 5.069307 5.069307 5.069307 5.069307-5.069307 0-10.138614 5.069307-15.207921 5.069307-5.069307 5.069307-10.138614 5.069307-15.207921 5.069307l-202.772275 96.316831-20.277228-30.415841c-50.693069-81.10891-70.970296-177.425741-60.831683-273.742572 10.138614-116.594058 65.900989-202.772275 121.663365-263.603958 10.138614-10.138614 15.207921-15.207921 25.346534-25.346534 0 0 5.069307-5.069307 5.069307-5.069307l20.277228-15.207921c55.762376-45.623762 131.801979-76.039603 207.841582-86.178217 86.178217-10.138614 172.356434 0 243.32673 35.485148 20.277228 10.138614 35.485148 20.277228 55.762376 30.415841C755.32673 141.940593 760.396037 141.940593 760.396037 147.0099L760.396037 147.0099 760.396037 147.0099zM5.069312 496.792075l0 40.554455c0 5.069307 0 20.277228 5.069307 25.346534 0 10.138614 0 20.277228 5.069307 25.346534 15.207921 106.455445 65.900989 207.841582 141.940593 283.881185 40.554455 40.554455 91.247524 76.039603 141.940593 101.386138 101.386138 45.623762 182.495048 45.623762 192.633662 50.693069l0 0 45.623762 0c5.069307 0 20.277228 0 25.346534-5.069307 96.316831-10.138614 187.564355-45.623762 258.534651-101.386138 60.831683-50.693069 116.594058-111.524751 147.0099-187.564355 50.693069-106.455445 45.623762-187.564355 45.623762-192.633662L1013.861381 491.722768c0-5.069307 0-20.277228-5.069307-30.415841-10.138614-116.594058-65.900989-228.11881-147.0099-309.22772C866.851482 152.079206 861.782175 147.0099 856.712868 141.940593c-10.138614-10.138614-40.554455-35.485148-50.693069-40.554455-25.346534-15.207921-45.623762-30.415841-76.039603-45.623762-50.693069-25.346534-111.524751-40.554455-167.287127-45.623762-5.069307 0-25.346534 0-30.415841-5.069307L491.722772 5.069307c-5.069307 0-20.277228 0-30.415841 5.069307C390.336635 15.207921 314.297032 40.554455 253.465349 76.039603 243.326735 86.178217 228.118815 91.247524 217.980201 101.386138 197.702973 116.594058 172.356439 136.871286 152.079211 157.148513 131.801984 177.425741 116.594063 197.702968 96.316836 223.049503c-35.485148 50.693069-60.831683 106.455445-76.039603 167.287127C15.207925 415.683164 10.138619 441.029699 5.069312 466.376233 5.069312 471.44554 5.069312 491.722768 5.069312 496.792075L5.069312 496.792075 5.069312 496.792075zM5.069312 496.792075"  /></svg>